<?xml version="1.0" encoding="UTF-8" standalone="no"?>
<!DOCTYPE svg PUBLIC "-//W3C//DTD SVG 1.1//EN"
 "http://www.w3.org/Graphics/SVG/1.1/DTD/svg11.dtd">
<!-- Generated by graphviz version 2.34.0 (20130907.0228)
 -->
<!-- Title: %3 Pages: 1 -->
<svg width="2306pt" height="490pt"
 viewBox="0.00 0.00 2306.00 490.00" xmlns="http://www.w3.org/2000/svg" xmlns:xlink="http://www.w3.org/1999/xlink">
<g id="graph0" class="graph" transform="scale(1 1) rotate(0) translate(4 486)">
<title>%3</title>
<polygon fill="white" stroke="white" points="-4,4 -4,-486 2302,-486 2302,4 -4,4"/>
<!-- org_liveSense_service_gwt -->
<g id="node1" class="node"><title>org_liveSense_service_gwt</title>
<polygon fill="yellow" stroke="black" points="1097.5,-445 1097.5,-481 1276.5,-481 1276.5,-445 1097.5,-445"/>
<text text-anchor="middle" x="1187" y="-470.1" font-family="Arial" font-size="8.00">liveSense :: Service :: GWT Abstract Services</text>
<polyline fill="none" stroke="black" points="1097.5,-463 1276.5,-463 "/>
<text text-anchor="middle" x="1187" y="-452.1" font-family="Arial" font-size="8.00">org.liveSense.service.gwt(2&#45;SNAPSHOT)</text>
</g>
<!-- org_liveSense_framework_gwt -->
<g id="node2" class="node"><title>org_liveSense_framework_gwt</title>
<polygon fill="green" stroke="black" points="1525,-371 1525,-407 1701,-407 1701,-371 1525,-371"/>
<text text-anchor="middle" x="1613" y="-396.1" font-family="Arial" font-size="8.00">liveSense :: Framework :: GWT framework</text>
<polyline fill="none" stroke="black" points="1525,-389 1701,-389 "/>
<text text-anchor="middle" x="1613" y="-378.1" font-family="Arial" font-size="8.00">org.liveSense.framework.gwt(2&#45;SNAPSHOT)</text>
</g>
<!-- org_liveSense_service_gwt&#45;&gt;org_liveSense_framework_gwt -->
<g id="edge1" class="edge"><title>org_liveSense_service_gwt&#45;&gt;org_liveSense_framework_gwt</title>
<path fill="none" stroke="yellow" d="M1276.52,-447.72C1342.5,-437.083 1434.41,-422.034 1515,-408 1515.1,-407.982 1515.2,-407.965 1515.3,-407.947"/>
<polygon fill="yellow" stroke="yellow" points="1515.62,-411.445 1524.86,-406.267 1514.41,-404.551 1515.62,-411.445"/>
</g>
<!-- javax_jcr -->
<g id="node3" class="node"><title>javax_jcr</title>
<polygon fill="green" stroke="black" points="837,-371 837,-407 1023,-407 1023,-371 837,-371"/>
<text text-anchor="middle" x="930" y="-396.1" font-family="Arial" font-size="8.00">Content Repository for JavaTM Technology API</text>
<polyline fill="none" stroke="black" points="837,-389 1023,-389 "/>
<text text-anchor="middle" x="930" y="-378.1" font-family="Arial" font-size="8.00">javax.jcr(2.0)</text>
</g>
<!-- org_liveSense_service_gwt&#45;&gt;javax_jcr -->
<g id="edge2" class="edge"><title>org_liveSense_service_gwt&#45;&gt;javax_jcr</title>
<path fill="none" stroke="yellow" d="M1126.09,-444.937C1088.46,-434.395 1040.02,-420.823 1000.7,-409.807"/>
<polygon fill="yellow" stroke="yellow" points="1001.49,-406.393 990.913,-407.065 999.598,-413.133 1001.49,-406.393"/>
</g>
<!-- org_apache_sling_auth_core -->
<g id="node4" class="node"><title>org_apache_sling_auth_core</title>
<polygon fill="green" stroke="black" points="1041.5,-371 1041.5,-407 1186.5,-407 1186.5,-371 1041.5,-371"/>
<text text-anchor="middle" x="1114" y="-396.1" font-family="Arial" font-size="8.00">Apache Sling Authentication Service</text>
<polyline fill="none" stroke="black" points="1041.5,-389 1186.5,-389 "/>
<text text-anchor="middle" x="1114" y="-378.1" font-family="Arial" font-size="8.00">org.apache.sling.auth.core(1.1.2)</text>
</g>
<!-- org_liveSense_service_gwt&#45;&gt;org_apache_sling_auth_core -->
<g id="edge3" class="edge"><title>org_liveSense_service_gwt&#45;&gt;org_apache_sling_auth_core</title>
<path fill="none" stroke="yellow" d="M1169.7,-444.937C1160.4,-435.768 1148.78,-424.308 1138.57,-414.231"/>
<polygon fill="yellow" stroke="yellow" points="1141.01,-411.72 1131.43,-407.19 1136.09,-416.704 1141.01,-411.72"/>
</g>
<!-- org_apache_sling_jcr_api -->
<g id="node5" class="node"><title>org_apache_sling_jcr_api</title>
<polygon fill="green" stroke="black" points="673,-371 673,-407 819,-407 819,-371 673,-371"/>
<text text-anchor="middle" x="746" y="-396.1" font-family="Arial" font-size="8.00">Apache Sling Repository API Bundle</text>
<polyline fill="none" stroke="black" points="673,-389 819,-389 "/>
<text text-anchor="middle" x="746" y="-378.1" font-family="Arial" font-size="8.00">org.apache.sling.jcr.api(2.1.0)</text>
</g>
<!-- org_liveSense_service_gwt&#45;&gt;org_apache_sling_jcr_api -->
<g id="edge4" class="edge"><title>org_liveSense_service_gwt&#45;&gt;org_apache_sling_jcr_api</title>
<path fill="none" stroke="yellow" d="M1097.47,-450.224C1027.09,-440.575 926.372,-425.903 829.26,-408.175"/>
<polygon fill="yellow" stroke="yellow" points="829.737,-404.704 819.268,-406.337 828.47,-411.588 829.737,-404.704"/>
</g>
<!-- org_apache_sling_api -->
<g id="node6" class="node"><title>org_apache_sling_api</title>
<polygon fill="green" stroke="black" points="1204.5,-371 1204.5,-407 1315.5,-407 1315.5,-371 1204.5,-371"/>
<text text-anchor="middle" x="1260" y="-396.1" font-family="Arial" font-size="8.00">Apache Sling API</text>
<polyline fill="none" stroke="black" points="1204.5,-389 1315.5,-389 "/>
<text text-anchor="middle" x="1260" y="-378.1" font-family="Arial" font-size="8.00">org.apache.sling.api(2.4.2)</text>
</g>
<!-- org_liveSense_service_gwt&#45;&gt;org_apache_sling_api -->
<g id="edge5" class="edge"><title>org_liveSense_service_gwt&#45;&gt;org_apache_sling_api</title>
<path fill="none" stroke="yellow" d="M1204.3,-444.937C1213.6,-435.768 1225.22,-424.308 1235.43,-414.231"/>
<polygon fill="yellow" stroke="yellow" points="1237.91,-416.704 1242.57,-407.19 1232.99,-411.72 1237.91,-416.704"/>
</g>
<!-- org_apache_geronimo_specs_geronimo_servlet_3_0_spec -->
<g id="node7" class="node"><title>org_apache_geronimo_specs_geronimo_servlet_3_0_spec</title>
<polygon fill="green" stroke="black" points="1719,-371 1719,-407 1949,-407 1949,-371 1719,-371"/>
<text text-anchor="middle" x="1834" y="-396.1" font-family="Arial" font-size="8.00">Servlet 3.0</text>
<polyline fill="none" stroke="black" points="1719,-389 1949,-389 "/>
<text text-anchor="middle" x="1834" y="-378.1" font-family="Arial" font-size="8.00">org.apache.geronimo.specs.geronimo&#45;servlet_3.0_spec(1.0)</text>
</g>
<!-- org_liveSense_service_gwt&#45;&gt;org_apache_geronimo_specs_geronimo_servlet_3_0_spec -->
<g id="edge6" class="edge"><title>org_liveSense_service_gwt&#45;&gt;org_apache_geronimo_specs_geronimo_servlet_3_0_spec</title>
<path fill="none" stroke="yellow" d="M1276.9,-453.855C1378.95,-444.351 1550.69,-427.578 1708.47,-408.164"/>
<polygon fill="yellow" stroke="yellow" points="1709.35,-411.582 1718.84,-406.881 1708.49,-404.635 1709.35,-411.582"/>
</g>
<!-- org_ops4j_pax_logging_pax_logging_api -->
<g id="node8" class="node"><title>org_ops4j_pax_logging_pax_logging_api</title>
<polygon fill="green" stroke="black" points="1333.5,-371 1333.5,-407 1506.5,-407 1506.5,-371 1333.5,-371"/>
<text text-anchor="middle" x="1420" y="-396.1" font-family="Arial" font-size="8.00">OPS4J Pax Logging &#45; API</text>
<polyline fill="none" stroke="black" points="1333.5,-389 1506.5,-389 "/>
<text text-anchor="middle" x="1420" y="-378.1" font-family="Arial" font-size="8.00">org.ops4j.pax.logging.pax&#45;logging&#45;api(1.7.0)</text>
</g>
<!-- org_liveSense_service_gwt&#45;&gt;org_ops4j_pax_logging_pax_logging_api -->
<g id="edge7" class="edge"><title>org_liveSense_service_gwt&#45;&gt;org_ops4j_pax_logging_pax_logging_api</title>
<path fill="none" stroke="yellow" d="M1242.22,-444.937C1276.04,-434.484 1319.51,-421.053 1354.99,-410.088"/>
<polygon fill="yellow" stroke="yellow" points="1356.25,-413.362 1364.78,-407.065 1354.19,-406.674 1356.25,-413.362"/>
</g>
<!-- org_liveSense_core -->
<g id="node9" class="node"><title>org_liveSense_core</title>
<polygon fill="green" stroke="black" points="515.5,-371 515.5,-407 654.5,-407 654.5,-371 515.5,-371"/>
<text text-anchor="middle" x="585" y="-396.1" font-family="Arial" font-size="8.00">liveSense :: Core</text>
<polyline fill="none" stroke="black" points="515.5,-389 654.5,-389 "/>
<text text-anchor="middle" x="585" y="-378.1" font-family="Arial" font-size="8.00">org.liveSense.core(2&#45;SNAPSHOT)</text>
</g>
<!-- org_liveSense_service_gwt&#45;&gt;org_liveSense_core -->
<g id="edge8" class="edge"><title>org_liveSense_service_gwt&#45;&gt;org_liveSense_core</title>
<path fill="none" stroke="yellow" d="M1097.26,-456.056C994.876,-448.524 822.339,-433.548 664.585,-407.982"/>
<polygon fill="yellow" stroke="yellow" points="665.131,-404.524 654.696,-406.362 663.999,-411.432 665.131,-404.524"/>
</g>
<!-- org_liveSense_framework_gwt&#45;&gt;org_apache_geronimo_specs_geronimo_servlet_3_0_spec -->
<g id="edge9" class="edge"><title>org_liveSense_framework_gwt&#45;&gt;org_apache_geronimo_specs_geronimo_servlet_3_0_spec</title>
<path fill="none" stroke="green" d="M1701.05,-389C1703.67,-389 1706.28,-389 1708.89,-389"/>
<polygon fill="green" stroke="green" points="1708.97,-392.5 1718.97,-389 1708.97,-385.5 1708.97,-392.5"/>
</g>
<!-- org_apache_servicemix_bundles_junit -->
<g id="node10" class="node"><title>org_apache_servicemix_bundles_junit</title>
<polygon fill="#3182bd" stroke="black" points="1888.5,-1 1888.5,-37 2061.5,-37 2061.5,-1 1888.5,-1"/>
<text text-anchor="middle" x="1975" y="-26.1" font-family="Arial" font-size="8.00">Apache ServiceMix :: Bundles :: junit</text>
<polyline fill="none" stroke="black" points="1888.5,-19 2061.5,-19 "/>
<text text-anchor="middle" x="1975" y="-8.1" font-family="Arial" font-size="8.00">org.apache.servicemix.bundles.junit(3.8.2.4)</text>
</g>
<!-- org_liveSense_framework_gwt&#45;&gt;org_apache_servicemix_bundles_junit -->
<g id="edge10" class="edge"><title>org_liveSense_framework_gwt&#45;&gt;org_apache_servicemix_bundles_junit</title>
<path fill="none" stroke="green" d="M1701.01,-371.534C1704.04,-371.01 1707.04,-370.497 1710,-370 1877.05,-341.927 2069,-411.394 2069,-242 2069,-242 2069,-242 2069,-166 2069,-122.408 2059.47,-110.076 2035,-74 2027.37,-62.7435 2016.9,-52.2607 2006.84,-43.5827"/>
<polygon fill="green" stroke="green" points="2008.86,-40.7106 1998.92,-37.0298 2004.39,-46.1027 2008.86,-40.7106"/>
</g>
<!-- org_apache_servicemix_specs_jsr303_api_1_0_0 -->
<g id="node11" class="node"><title>org_apache_servicemix_specs_jsr303_api_1_0_0</title>
<polygon fill="#3182bd" stroke="black" points="2097.5,-297 2097.5,-333 2298.5,-333 2298.5,-297 2097.5,-297"/>
<text text-anchor="middle" x="2198" y="-322.1" font-family="Arial" font-size="8.00">Apache ServiceMix :: Specs :: JSR&#45;303 API 1.0.0</text>
<polyline fill="none" stroke="black" points="2097.5,-315 2298.5,-315 "/>
<text text-anchor="middle" x="2198" y="-304.1" font-family="Arial" font-size="8.00">org.apache.servicemix.specs.jsr303&#45;api&#45;1.0.0(2.2.0)</text>
</g>
<!-- org_liveSense_framework_gwt&#45;&gt;org_apache_servicemix_specs_jsr303_api_1_0_0 -->
<g id="edge11" class="edge"><title>org_liveSense_framework_gwt&#45;&gt;org_apache_servicemix_specs_jsr303_api_1_0_0</title>
<path fill="none" stroke="green" d="M1701.23,-371.289C1704.19,-370.837 1707.12,-370.406 1710,-370 1874.92,-346.784 1917.77,-354.887 2083,-334 2084.47,-333.814 2085.95,-333.624 2087.45,-333.43"/>
<polygon fill="green" stroke="green" points="2087.94,-336.895 2097.39,-332.099 2087.01,-329.957 2087.94,-336.895"/>
</g>
<!-- org_apache_sling_auth_core&#45;&gt;org_apache_sling_api -->
<g id="edge12" class="edge"><title>org_apache_sling_auth_core&#45;&gt;org_apache_sling_api</title>
<path fill="none" stroke="green" d="M1186.71,-389C1189.21,-389 1191.71,-389 1194.2,-389"/>
<polygon fill="green" stroke="green" points="1194.46,-392.5 1204.46,-389 1194.46,-385.5 1194.46,-392.5"/>
</g>
<!-- org_apache_sling_auth_core&#45;&gt;org_apache_geronimo_specs_geronimo_servlet_3_0_spec -->
<g id="edge13" class="edge"><title>org_apache_sling_auth_core&#45;&gt;org_apache_geronimo_specs_geronimo_servlet_3_0_spec</title>
<path fill="none" stroke="green" d="M1148.91,-407.078C1165.19,-414.522 1185.11,-422.268 1204,-426 1312.35,-447.403 1591.57,-440.938 1701,-426 1724.69,-422.767 1750.1,-416.437 1772.31,-409.913"/>
<polygon fill="green" stroke="green" points="1773.37,-413.248 1781.94,-407.014 1771.36,-406.545 1773.37,-413.248"/>
</g>
<!-- org_apache_sling_auth_core&#45;&gt;org_ops4j_pax_logging_pax_logging_api -->
<g id="edge15" class="edge"><title>org_apache_sling_auth_core&#45;&gt;org_ops4j_pax_logging_pax_logging_api</title>
<path fill="none" stroke="green" d="M1148.91,-407.078C1165.19,-414.522 1185.11,-422.268 1204,-426 1252.4,-435.56 1266.37,-434.317 1315,-426 1333.16,-422.895 1352.34,-416.974 1369.28,-410.765"/>
<polygon fill="green" stroke="green" points="1370.86,-413.91 1378.97,-407.094 1368.38,-407.365 1370.86,-413.91"/>
</g>
<!-- org_apache_felix_eventadmin -->
<g id="node12" class="node"><title>org_apache_felix_eventadmin</title>
<polygon fill="#3182bd" stroke="black" points="1096,-75 1096,-111 1236,-111 1236,-75 1096,-75"/>
<text text-anchor="middle" x="1166" y="-100.1" font-family="Arial" font-size="8.00">Apache Felix EventAdmin</text>
<polyline fill="none" stroke="black" points="1096,-93 1236,-93 "/>
<text text-anchor="middle" x="1166" y="-82.1" font-family="Arial" font-size="8.00">org.apache.felix.eventadmin(1.3.2)</text>
</g>
<!-- org_apache_sling_auth_core&#45;&gt;org_apache_felix_eventadmin -->
<g id="edge14" class="edge"><title>org_apache_sling_auth_core&#45;&gt;org_apache_felix_eventadmin</title>
<path fill="none" stroke="green" d="M1130.47,-370.544C1138.66,-360.645 1147.71,-347.552 1152,-334 1157.1,-317.899 1155.06,-312.609 1152,-296 1139.6,-228.759 1083.26,-210.93 1110,-148 1114.91,-136.444 1123.64,-126.159 1132.77,-117.747"/>
<polygon fill="green" stroke="green" points="1135.15,-120.309 1140.45,-111.134 1130.59,-115.003 1135.15,-120.309"/>
</g>
<!-- org_apache_sling_jcr_api&#45;&gt;javax_jcr -->
<g id="edge16" class="edge"><title>org_apache_sling_jcr_api&#45;&gt;javax_jcr</title>
<path fill="none" stroke="green" d="M819.312,-389C821.655,-389 823.997,-389 826.339,-389"/>
<polygon fill="green" stroke="green" points="826.607,-392.5 836.607,-389 826.607,-385.5 826.607,-392.5"/>
</g>
<!-- org_apache_sling_api&#45;&gt;org_apache_geronimo_specs_geronimo_servlet_3_0_spec -->
<g id="edge29" class="edge"><title>org_apache_sling_api&#45;&gt;org_apache_geronimo_specs_geronimo_servlet_3_0_spec</title>
<path fill="none" stroke="#3182bd" d="M1287.92,-407.048C1301.05,-414.486 1317.25,-422.235 1333,-426 1412.54,-445.006 1619.97,-437.061 1701,-426 1724.69,-422.767 1750.1,-416.437 1772.31,-409.913"/>
<polygon fill="#3182bd" stroke="#3182bd" points="1773.37,-413.248 1781.94,-407.014 1771.36,-406.545 1773.37,-413.248"/>
</g>
<!-- org_apache_sling_api&#45;&gt;org_ops4j_pax_logging_pax_logging_api -->
<g id="edge28" class="edge"><title>org_apache_sling_api&#45;&gt;org_ops4j_pax_logging_pax_logging_api</title>
<path fill="none" stroke="#3182bd" d="M1315.62,-389C1318.09,-389 1320.56,-389 1323.02,-389"/>
<polygon fill="#3182bd" stroke="#3182bd" points="1323.16,-392.5 1333.16,-389 1323.16,-385.5 1323.16,-392.5"/>
</g>
<!-- org_ops4j_pax_logging_pax_logging_api&#45;&gt;org_apache_felix_eventadmin -->
<g id="edge39" class="edge"><title>org_ops4j_pax_logging_pax_logging_api&#45;&gt;org_apache_felix_eventadmin</title>
<path fill="none" stroke="#9ecae1" d="M1417.91,-370.777C1417.99,-326.681 1423.77,-208.905 1361,-148 1356.29,-143.429 1292.91,-127.05 1239.61,-113.517"/>
<polygon fill="#9ecae1" stroke="#9ecae1" points="1240.34,-110.093 1229.79,-111.027 1238.62,-116.878 1240.34,-110.093"/>
</g>
<!-- org_liveSense_core&#45;&gt;javax_jcr -->
<g id="edge17" class="edge"><title>org_liveSense_core&#45;&gt;javax_jcr</title>
<path fill="none" stroke="green" d="M619.095,-407.075C635.003,-414.519 654.479,-422.265 673,-426 736.608,-438.828 754.949,-436.394 819,-426 838.461,-422.842 859.12,-416.76 877.272,-410.426"/>
<polygon fill="green" stroke="green" points="878.569,-413.679 886.795,-407.001 876.2,-407.092 878.569,-413.679"/>
</g>
<!-- org_liveSense_core&#45;&gt;org_apache_sling_api -->
<g id="edge18" class="edge"><title>org_liveSense_core&#45;&gt;org_apache_sling_api</title>
<path fill="none" stroke="green" d="M619.095,-407.075C635.003,-414.519 654.479,-422.265 673,-426 728.875,-437.269 1130.52,-439.096 1186,-426 1198.45,-423.061 1211.19,-417.688 1222.52,-411.932"/>
<polygon fill="green" stroke="green" points="1224.49,-414.848 1231.66,-407.051 1221.19,-408.673 1224.49,-414.848"/>
</g>
<!-- org_liveSense_core&#45;&gt;org_apache_geronimo_specs_geronimo_servlet_3_0_spec -->
<g id="edge20" class="edge"><title>org_liveSense_core&#45;&gt;org_apache_geronimo_specs_geronimo_servlet_3_0_spec</title>
<path fill="none" stroke="green" d="M619.095,-407.075C635.003,-414.519 654.479,-422.265 673,-426 784.968,-448.581 1587.83,-441.449 1701,-426 1724.69,-422.767 1750.1,-416.437 1772.31,-409.913"/>
<polygon fill="green" stroke="green" points="1773.37,-413.248 1781.94,-407.014 1771.36,-406.545 1773.37,-413.248"/>
</g>
<!-- org_liveSense_core&#45;&gt;org_ops4j_pax_logging_pax_logging_api -->
<g id="edge24" class="edge"><title>org_liveSense_core&#45;&gt;org_ops4j_pax_logging_pax_logging_api</title>
<path fill="none" stroke="green" d="M619.095,-407.075C635.003,-414.519 654.479,-422.265 673,-426 742.925,-440.102 1244.69,-438.026 1315,-426 1333.16,-422.895 1352.34,-416.974 1369.28,-410.765"/>
<polygon fill="green" stroke="green" points="1370.86,-413.91 1378.97,-407.094 1368.38,-407.365 1370.86,-413.91"/>
</g>
<!-- org_apache_sling_commons_osgi -->
<g id="node13" class="node"><title>org_apache_sling_commons_osgi</title>
<polygon fill="#3182bd" stroke="black" points="435.5,-223 435.5,-259 588.5,-259 588.5,-223 435.5,-223"/>
<text text-anchor="middle" x="512" y="-248.1" font-family="Arial" font-size="8.00">Apache Sling Commons OSGi support</text>
<polyline fill="none" stroke="black" points="435.5,-241 588.5,-241 "/>
<text text-anchor="middle" x="512" y="-230.1" font-family="Arial" font-size="8.00">org.apache.sling.commons.osgi(2.2.0)</text>
</g>
<!-- org_liveSense_core&#45;&gt;org_apache_sling_commons_osgi -->
<g id="edge19" class="edge"><title>org_liveSense_core&#45;&gt;org_apache_sling_commons_osgi</title>
<path fill="none" stroke="green" d="M561.929,-370.918C550.593,-361.312 537.739,-348.375 530,-334 519.244,-314.022 514.865,-288.519 513.107,-269.433"/>
<polygon fill="green" stroke="green" points="516.585,-269.013 512.361,-259.297 509.604,-269.527 516.585,-269.013"/>
</g>
<!-- org_apache_commons_lang -->
<g id="node14" class="node"><title>org_apache_commons_lang</title>
<polygon fill="#3182bd" stroke="black" points="-0.5,-297 -0.5,-333 126.5,-333 126.5,-297 -0.5,-297"/>
<text text-anchor="middle" x="63" y="-322.1" font-family="Arial" font-size="8.00">Commons Lang</text>
<polyline fill="none" stroke="black" points="-0.5,-315 126.5,-315 "/>
<text text-anchor="middle" x="63" y="-304.1" font-family="Arial" font-size="8.00">org.apache.commons.lang(2.6)</text>
</g>
<!-- org_liveSense_core&#45;&gt;org_apache_commons_lang -->
<g id="edge21" class="edge"><title>org_liveSense_core&#45;&gt;org_apache_commons_lang</title>
<path fill="none" stroke="green" d="M515.211,-382.362C428.48,-374.745 275.85,-359.338 136.517,-334.166"/>
<polygon fill="green" stroke="green" points="136.975,-330.692 126.509,-332.337 135.716,-337.578 136.975,-330.692"/>
</g>
<!-- org_apache_commons_beanutils -->
<g id="node15" class="node"><title>org_apache_commons_beanutils</title>
<polygon fill="#3182bd" stroke="black" points="797.5,-297 797.5,-333 948.5,-333 948.5,-297 797.5,-297"/>
<text text-anchor="middle" x="873" y="-322.1" font-family="Arial" font-size="8.00">Commons BeanUtils</text>
<polyline fill="none" stroke="black" points="797.5,-315 948.5,-315 "/>
<text text-anchor="middle" x="873" y="-304.1" font-family="Arial" font-size="8.00">org.apache.commons.beanutils(1.8.3)</text>
</g>
<!-- org_liveSense_core&#45;&gt;org_apache_commons_beanutils -->
<g id="edge22" class="edge"><title>org_liveSense_core&#45;&gt;org_apache_commons_beanutils</title>
<path fill="none" stroke="green" d="M653.252,-370.937C695.779,-360.305 750.628,-346.593 794.889,-335.528"/>
<polygon fill="green" stroke="green" points="795.887,-338.886 804.739,-333.065 794.189,-332.095 795.887,-338.886"/>
</g>
<!-- org_apache_felix_scr -->
<g id="node16" class="node"><title>org_apache_felix_scr</title>
<polygon fill="#3182bd" stroke="black" points="1005,-297 1005,-333 1143,-333 1143,-297 1005,-297"/>
<text text-anchor="middle" x="1074" y="-322.1" font-family="Arial" font-size="8.00">Apache Felix Declarative Services</text>
<polyline fill="none" stroke="black" points="1005,-315 1143,-315 "/>
<text text-anchor="middle" x="1074" y="-304.1" font-family="Arial" font-size="8.00">org.apache.felix.scr(1.6.2)</text>
</g>
<!-- org_liveSense_core&#45;&gt;org_apache_felix_scr -->
<g id="edge23" class="edge"><title>org_liveSense_core&#45;&gt;org_apache_felix_scr</title>
<path fill="none" stroke="green" d="M654.709,-371.712C657.844,-371.108 660.952,-370.533 664,-370 793.24,-347.397 827.036,-351.977 957,-334 969.208,-332.311 982.117,-330.426 994.729,-328.529"/>
<polygon fill="green" stroke="green" points="995.397,-331.968 1004.76,-327.009 994.348,-325.047 995.397,-331.968"/>
</g>
<!-- org_apache_servicemix_bundles_guava -->
<g id="node17" class="node"><title>org_apache_servicemix_bundles_guava</title>
<polygon fill="#3182bd" stroke="black" points="144.5,-297 144.5,-333 329.5,-333 329.5,-297 144.5,-297"/>
<text text-anchor="middle" x="237" y="-322.1" font-family="Arial" font-size="8.00">Apache ServiceMix :: Bundles :: guava</text>
<polyline fill="none" stroke="black" points="144.5,-315 329.5,-315 "/>
<text text-anchor="middle" x="237" y="-304.1" font-family="Arial" font-size="8.00">org.apache.servicemix.bundles.guava(11.0.0.1)</text>
</g>
<!-- org_liveSense_core&#45;&gt;org_apache_servicemix_bundles_guava -->
<g id="edge25" class="edge"><title>org_liveSense_core&#45;&gt;org_apache_servicemix_bundles_guava</title>
<path fill="none" stroke="green" d="M515.413,-373.603C461.975,-362.547 387.686,-347.177 329.287,-335.094"/>
<polygon fill="green" stroke="green" points="329.82,-331.63 319.318,-333.031 328.401,-338.485 329.82,-331.63"/>
</g>
<!-- net_entropysoft_transmorph -->
<g id="node18" class="node"><title>net_entropysoft_transmorph</title>
<polygon fill="#3182bd" stroke="black" points="347.5,-297 347.5,-333 482.5,-333 482.5,-297 347.5,-297"/>
<text text-anchor="middle" x="415" y="-322.1" font-family="Arial" font-size="8.00">Transmorph</text>
<polyline fill="none" stroke="black" points="347.5,-315 482.5,-315 "/>
<text text-anchor="middle" x="415" y="-304.1" font-family="Arial" font-size="8.00">net.entropysoft.transmorph(3.1.1)</text>
</g>
<!-- org_liveSense_core&#45;&gt;net_entropysoft_transmorph -->
<g id="edge26" class="edge"><title>org_liveSense_core&#45;&gt;net_entropysoft_transmorph</title>
<path fill="none" stroke="green" d="M544.712,-370.937C520.77,-360.797 490.211,-347.854 464.769,-337.078"/>
<polygon fill="green" stroke="green" points="465.866,-333.742 455.293,-333.065 463.136,-340.188 465.866,-333.742"/>
</g>
<!-- org_apache_jackrabbit_jackrabbit_jcr_commons -->
<g id="node19" class="node"><title>org_apache_jackrabbit_jackrabbit_jcr_commons</title>
<polygon fill="#3182bd" stroke="black" points="539.5,-297 539.5,-333 740.5,-333 740.5,-297 539.5,-297"/>
<text text-anchor="middle" x="640" y="-322.1" font-family="Arial" font-size="8.00">Jackrabbit JCR Commons</text>
<polyline fill="none" stroke="black" points="539.5,-315 740.5,-315 "/>
<text text-anchor="middle" x="640" y="-304.1" font-family="Arial" font-size="8.00">org.apache.jackrabbit.jackrabbit&#45;jcr&#45;commons(2.4.2)</text>
</g>
<!-- org_liveSense_core&#45;&gt;org_apache_jackrabbit_jackrabbit_jcr_commons -->
<g id="edge27" class="edge"><title>org_liveSense_core&#45;&gt;org_apache_jackrabbit_jackrabbit_jcr_commons</title>
<path fill="none" stroke="green" d="M598.034,-370.937C604.717,-362.189 612.993,-351.354 620.425,-341.626"/>
<polygon fill="green" stroke="green" points="623.388,-343.512 626.677,-333.441 617.825,-339.263 623.388,-343.512"/>
</g>
<!-- org_apache_felix_eventadmin&#45;&gt;org_ops4j_pax_logging_pax_logging_api -->
<g id="edge49" class="edge"><title>org_apache_felix_eventadmin&#45;&gt;org_ops4j_pax_logging_pax_logging_api</title>
<path fill="none" stroke="#deebf7" d="M1236.26,-109.199C1296.35,-123.327 1373.77,-142.93 1379,-148 1437.48,-204.742 1436.46,-310.844 1428.46,-360.743"/>
<polygon fill="#deebf7" stroke="#deebf7" points="1424.98,-360.308 1426.6,-370.777 1431.86,-361.579 1424.98,-360.308"/>
</g>
<!-- org_apache_felix_configadmin -->
<g id="node29" class="node"><title>org_apache_felix_configadmin</title>
<polygon fill="#bdbdbd" stroke="black" points="924,-1 924,-37 1090,-37 1090,-1 924,-1"/>
<text text-anchor="middle" x="1007" y="-26.1" font-family="Arial" font-size="8.00">Apache Felix Configuration Admin Service</text>
<polyline fill="none" stroke="black" points="924,-19 1090,-19 "/>
<text text-anchor="middle" x="1007" y="-8.1" font-family="Arial" font-size="8.00">org.apache.felix.configadmin(1.6.0)</text>
</g>
<!-- org_apache_felix_eventadmin&#45;&gt;org_apache_felix_configadmin -->
<g id="edge50" class="edge"><title>org_apache_felix_eventadmin&#45;&gt;org_apache_felix_configadmin</title>
<path fill="none" stroke="#deebf7" d="M1128.32,-74.937C1106.02,-64.8413 1077.6,-51.968 1053.86,-41.221"/>
<polygon fill="#deebf7" stroke="#deebf7" points="1055.24,-38.0019 1044.69,-37.0651 1052.35,-44.3786 1055.24,-38.0019"/>
</g>
<!-- org_apache_felix_metatype -->
<g id="node30" class="node"><title>org_apache_felix_metatype</title>
<polygon fill="#bdbdbd" stroke="black" points="1108.5,-1 1108.5,-37 1239.5,-37 1239.5,-1 1108.5,-1"/>
<text text-anchor="middle" x="1174" y="-26.1" font-family="Arial" font-size="8.00">Apache Felix Metatype Service</text>
<polyline fill="none" stroke="black" points="1108.5,-19 1239.5,-19 "/>
<text text-anchor="middle" x="1174" y="-8.1" font-family="Arial" font-size="8.00">org.apache.felix.metatype(1.0.6)</text>
</g>
<!-- org_apache_felix_eventadmin&#45;&gt;org_apache_felix_metatype -->
<g id="edge51" class="edge"><title>org_apache_felix_eventadmin&#45;&gt;org_apache_felix_metatype</title>
<path fill="none" stroke="#deebf7" d="M1167.9,-74.937C1168.81,-66.7188 1169.93,-56.66 1170.95,-47.4059"/>
<polygon fill="#deebf7" stroke="#deebf7" points="1174.44,-47.7661 1172.06,-37.4407 1167.48,-46.993 1174.44,-47.7661"/>
</g>
<!-- org_apache_sling_commons_osgi&#45;&gt;org_apache_felix_eventadmin -->
<g id="edge30" class="edge"><title>org_apache_sling_commons_osgi&#45;&gt;org_apache_felix_eventadmin</title>
<path fill="none" stroke="#3182bd" d="M517.735,-222.63C525.86,-201.059 542.939,-165.033 571,-148 613.986,-121.909 933.261,-104.36 1085.58,-97.3835"/>
<polygon fill="#3182bd" stroke="#3182bd" points="1085.98,-100.869 1095.81,-96.9194 1085.66,-93.8763 1085.98,-100.869"/>
</g>
<!-- org_apache_commons_beanutils&#45;&gt;org_ops4j_pax_logging_pax_logging_api -->
<g id="edge31" class="edge"><title>org_apache_commons_beanutils&#45;&gt;org_ops4j_pax_logging_pax_logging_api</title>
<path fill="none" stroke="#3182bd" d="M948.528,-331.664C953.417,-332.505 958.272,-333.293 963,-334 1119.2,-357.351 1162.62,-347.547 1323.21,-369.967"/>
<polygon fill="#3182bd" stroke="#3182bd" points="1323.06,-373.48 1333.45,-371.418 1324.04,-366.549 1323.06,-373.48"/>
</g>
<!-- org_apache_commons_collections -->
<g id="node20" class="node"><title>org_apache_commons_collections</title>
<polygon fill="#9ecae1" stroke="black" points="793,-223 793,-259 949,-259 949,-223 793,-223"/>
<text text-anchor="middle" x="871" y="-248.1" font-family="Arial" font-size="8.00">Commons Collections</text>
<polyline fill="none" stroke="black" points="793,-241 949,-241 "/>
<text text-anchor="middle" x="871" y="-230.1" font-family="Arial" font-size="8.00">org.apache.commons.collections(3.2.1)</text>
</g>
<!-- org_apache_commons_beanutils&#45;&gt;org_apache_commons_collections -->
<g id="edge32" class="edge"><title>org_apache_commons_beanutils&#45;&gt;org_apache_commons_collections</title>
<path fill="none" stroke="#3182bd" d="M872.526,-296.937C872.3,-288.807 872.024,-278.876 871.77,-269.705"/>
<polygon fill="#3182bd" stroke="#3182bd" points="875.261,-269.34 871.484,-259.441 868.264,-269.534 875.261,-269.34"/>
</g>
<!-- org_apache_felix_scr&#45;&gt;org_ops4j_pax_logging_pax_logging_api -->
<g id="edge36" class="edge"><title>org_apache_felix_scr&#45;&gt;org_ops4j_pax_logging_pax_logging_api</title>
<path fill="none" stroke="#3182bd" d="M1143.16,-330.393C1196.25,-341.44 1270.04,-356.795 1328.09,-368.875"/>
<polygon fill="#3182bd" stroke="#3182bd" points="1327.5,-372.326 1338,-370.937 1328.93,-365.473 1327.5,-372.326"/>
</g>
<!-- org_apache_karaf_shell_console -->
<g id="node21" class="node"><title>org_apache_karaf_shell_console</title>
<polygon fill="#9ecae1" stroke="black" points="1217,-223 1217,-259 1383,-259 1383,-223 1217,-223"/>
<text text-anchor="middle" x="1300" y="-248.1" font-family="Arial" font-size="8.00">Apache Karaf :: Shell :: Console</text>
<polyline fill="none" stroke="black" points="1217,-241 1383,-241 "/>
<text text-anchor="middle" x="1300" y="-230.1" font-family="Arial" font-size="8.00">org.apache.karaf.shell.console(3.0.0.RC1)</text>
</g>
<!-- org_apache_felix_scr&#45;&gt;org_apache_karaf_shell_console -->
<g id="edge33" class="edge"><title>org_apache_felix_scr&#45;&gt;org_apache_karaf_shell_console</title>
<path fill="none" stroke="#3182bd" d="M1127.56,-296.937C1160.23,-286.529 1202.17,-273.168 1236.5,-262.229"/>
<polygon fill="#3182bd" stroke="#3182bd" points="1237.97,-265.436 1246.43,-259.065 1235.84,-258.766 1237.97,-265.436"/>
</g>
<!-- org_apache_felix_scr&#45;&gt;org_apache_felix_configadmin -->
<g id="edge34" class="edge"><title>org_apache_felix_scr&#45;&gt;org_apache_felix_configadmin</title>
<path fill="none" stroke="#3182bd" d="M1059.86,-296.583C1052.43,-286.493 1043.88,-273.205 1039,-260 1011.89,-186.597 1007.29,-93.0441 1006.79,-47.4573"/>
<polygon fill="#3182bd" stroke="#3182bd" points="1010.29,-47.1808 1006.74,-37.1975 1003.29,-47.214 1010.29,-47.1808"/>
</g>
<!-- org_apache_felix_scr&#45;&gt;org_apache_felix_metatype -->
<g id="edge35" class="edge"><title>org_apache_felix_scr&#45;&gt;org_apache_felix_metatype</title>
<path fill="none" stroke="#3182bd" d="M1069.89,-296.771C1060.95,-255.09 1043.83,-146.884 1087,-74 1094.88,-60.6999 1107.44,-50.2048 1120.6,-42.1438"/>
<polygon fill="#3182bd" stroke="#3182bd" points="1122.33,-45.1848 1129.29,-37.193 1118.86,-39.1028 1122.33,-45.1848"/>
</g>
<!-- org_apache_jackrabbit_jackrabbit_jcr_commons&#45;&gt;javax_jcr -->
<g id="edge37" class="edge"><title>org_apache_jackrabbit_jackrabbit_jcr_commons&#45;&gt;javax_jcr</title>
<path fill="none" stroke="#3182bd" d="M708.483,-333.003C751.336,-343.642 806.686,-357.384 851.337,-368.47"/>
<polygon fill="#3182bd" stroke="#3182bd" points="850.725,-371.924 861.274,-370.937 852.412,-365.13 850.725,-371.924"/>
</g>
<!-- org_apache_jackrabbit_jackrabbit_api -->
<g id="node22" class="node"><title>org_apache_jackrabbit_jackrabbit_api</title>
<polygon fill="#9ecae1" stroke="black" points="608,-223 608,-259 774,-259 774,-223 608,-223"/>
<text text-anchor="middle" x="691" y="-248.1" font-family="Arial" font-size="8.00">Apache Jackrabbit API</text>
<polyline fill="none" stroke="black" points="608,-241 774,-241 "/>
<text text-anchor="middle" x="691" y="-230.1" font-family="Arial" font-size="8.00">org.apache.jackrabbit.jackrabbit&#45;api(2.4.2)</text>
</g>
<!-- org_apache_jackrabbit_jackrabbit_jcr_commons&#45;&gt;org_apache_jackrabbit_jackrabbit_api -->
<g id="edge38" class="edge"><title>org_apache_jackrabbit_jackrabbit_jcr_commons&#45;&gt;org_apache_jackrabbit_jackrabbit_api</title>
<path fill="none" stroke="#3182bd" d="M652.086,-296.937C658.283,-288.189 665.957,-277.354 672.849,-267.626"/>
<polygon fill="#3182bd" stroke="#3182bd" points="675.722,-269.624 678.646,-259.441 670.01,-265.578 675.722,-269.624"/>
</g>
<!-- org_apache_karaf_shell_console&#45;&gt;org_ops4j_pax_logging_pax_logging_api -->
<g id="edge45" class="edge"><title>org_apache_karaf_shell_console&#45;&gt;org_ops4j_pax_logging_pax_logging_api</title>
<path fill="none" stroke="#9ecae1" d="M1314.28,-259.378C1335.47,-285.159 1375.34,-333.663 1399.6,-363.179"/>
<polygon fill="#9ecae1" stroke="#9ecae1" points="1396.95,-365.463 1406,-370.966 1402.35,-361.018 1396.95,-365.463"/>
</g>
<!-- org_apache_karaf_shell_console&#45;&gt;org_apache_felix_eventadmin -->
<g id="edge42" class="edge"><title>org_apache_karaf_shell_console&#45;&gt;org_apache_felix_eventadmin</title>
<path fill="none" stroke="#9ecae1" d="M1321.87,-222.95C1343.65,-203.878 1371.39,-172.455 1353,-148 1346.08,-138.794 1293.48,-124.075 1245.82,-112.327"/>
<polygon fill="#9ecae1" stroke="#9ecae1" points="1246.6,-108.916 1236.06,-109.944 1244.94,-115.716 1246.6,-108.916"/>
</g>
<!-- org_apache_aries_blueprint_api -->
<g id="node23" class="node"><title>org_apache_aries_blueprint_api</title>
<polygon fill="#deebf7" stroke="black" points="1254.5,-75 1254.5,-111 1399.5,-111 1399.5,-75 1254.5,-75"/>
<text text-anchor="middle" x="1327" y="-100.1" font-family="Arial" font-size="8.00">Apache Aries Blueprint API</text>
<polyline fill="none" stroke="black" points="1254.5,-93 1399.5,-93 "/>
<text text-anchor="middle" x="1327" y="-82.1" font-family="Arial" font-size="8.00">org.apache.aries.blueprint.api(1.0.0)</text>
</g>
<!-- org_apache_karaf_shell_console&#45;&gt;org_apache_aries_blueprint_api -->
<g id="edge40" class="edge"><title>org_apache_karaf_shell_console&#45;&gt;org_apache_aries_blueprint_api</title>
<path fill="none" stroke="#9ecae1" d="M1345.63,-222.827C1361.66,-214.327 1377.93,-202.312 1387,-186 1395.21,-171.241 1393.87,-163.428 1387,-148 1381.74,-136.181 1372.47,-125.864 1362.76,-117.502"/>
<polygon fill="#9ecae1" stroke="#9ecae1" points="1364.94,-114.764 1354.96,-111.224 1360.56,-120.219 1364.94,-114.764"/>
</g>
<!-- jline -->
<g id="node24" class="node"><title>jline</title>
<polygon fill="#deebf7" stroke="black" points="1119,-149 1119,-185 1173,-185 1173,-149 1119,-149"/>
<text text-anchor="middle" x="1146" y="-174.1" font-family="Arial" font-size="8.00">JLine</text>
<polyline fill="none" stroke="black" points="1119,-167 1173,-167 "/>
<text text-anchor="middle" x="1146" y="-156.1" font-family="Arial" font-size="8.00">jline(2.9.0)</text>
</g>
<!-- org_apache_karaf_shell_console&#45;&gt;jline -->
<g id="edge41" class="edge"><title>org_apache_karaf_shell_console&#45;&gt;jline</title>
<path fill="none" stroke="#9ecae1" d="M1261.85,-222.943C1240.75,-213.418 1213.88,-201.143 1182.5,-186.175"/>
<polygon fill="#9ecae1" stroke="#9ecae1" points="1183.61,-182.825 1173.08,-181.664 1180.59,-189.139 1183.61,-182.825"/>
</g>
<!-- org_apache_aries_blueprint_core -->
<g id="node25" class="node"><title>org_apache_aries_blueprint_core</title>
<polygon fill="#deebf7" stroke="black" points="1495,-149 1495,-185 1645,-185 1645,-149 1495,-149"/>
<text text-anchor="middle" x="1570" y="-174.1" font-family="Arial" font-size="8.00">Apache Aries Blueprint Core</text>
<polyline fill="none" stroke="black" points="1495,-167 1645,-167 "/>
<text text-anchor="middle" x="1570" y="-156.1" font-family="Arial" font-size="8.00">org.apache.aries.blueprint.core(1.1.0)</text>
</g>
<!-- org_apache_karaf_shell_console&#45;&gt;org_apache_aries_blueprint_core -->
<g id="edge43" class="edge"><title>org_apache_karaf_shell_console&#45;&gt;org_apache_aries_blueprint_core</title>
<path fill="none" stroke="#9ecae1" d="M1363.99,-222.937C1403.69,-212.35 1454.84,-198.708 1496.25,-187.667"/>
<polygon fill="#9ecae1" stroke="#9ecae1" points="1497.25,-191.024 1506.01,-185.065 1495.44,-184.26 1497.25,-191.024"/>
</g>
<!-- org_apache_sshd_core -->
<g id="node26" class="node"><title>org_apache_sshd_core</title>
<polygon fill="#deebf7" stroke="black" points="1747.5,-149 1747.5,-185 1864.5,-185 1864.5,-149 1747.5,-149"/>
<text text-anchor="middle" x="1806" y="-174.1" font-family="Arial" font-size="8.00">Apache Mina SSHD :: Core</text>
<polyline fill="none" stroke="black" points="1747.5,-167 1864.5,-167 "/>
<text text-anchor="middle" x="1806" y="-156.1" font-family="Arial" font-size="8.00">org.apache.sshd.core(0.8.0)</text>
</g>
<!-- org_apache_karaf_shell_console&#45;&gt;org_apache_sshd_core -->
<g id="edge44" class="edge"><title>org_apache_karaf_shell_console&#45;&gt;org_apache_sshd_core</title>
<path fill="none" stroke="#9ecae1" d="M1383.27,-228.151C1482.1,-214.088 1645.07,-190.9 1737.12,-177.802"/>
<polygon fill="#9ecae1" stroke="#9ecae1" points="1737.75,-181.246 1747.16,-176.372 1736.77,-174.316 1737.75,-181.246"/>
</g>
<!-- org_apache_karaf_jaas_boot -->
<g id="node27" class="node"><title>org_apache_karaf_jaas_boot</title>
<polygon fill="#deebf7" stroke="black" points="1191.5,-149 1191.5,-185 1344.5,-185 1344.5,-149 1191.5,-149"/>
<text text-anchor="middle" x="1268" y="-174.1" font-family="Arial" font-size="8.00">Apache Karaf :: JAAS :: Boot</text>
<polyline fill="none" stroke="black" points="1191.5,-167 1344.5,-167 "/>
<text text-anchor="middle" x="1268" y="-156.1" font-family="Arial" font-size="8.00">org.apache.karaf.jaas.boot(3.0.0.RC1)</text>
</g>
<!-- org_apache_karaf_shell_console&#45;&gt;org_apache_karaf_jaas_boot -->
<g id="edge46" class="edge"><title>org_apache_karaf_shell_console&#45;&gt;org_apache_karaf_jaas_boot</title>
<path fill="none" stroke="#9ecae1" d="M1292.42,-222.937C1288.69,-214.542 1284.1,-204.227 1279.92,-194.81"/>
<polygon fill="#9ecae1" stroke="#9ecae1" points="1283.01,-193.157 1275.75,-185.441 1276.61,-196 1283.01,-193.157"/>
</g>
<!-- org_apache_jackrabbit_jackrabbit_api&#45;&gt;javax_jcr -->
<g id="edge47" class="edge"><title>org_apache_jackrabbit_jackrabbit_api&#45;&gt;javax_jcr</title>
<path fill="none" stroke="#9ecae1" d="M709.646,-259.16C721.068,-269.721 735.949,-283.57 749,-296 766.524,-312.691 767.598,-320.983 788,-334 809.79,-347.902 835.706,-359.074 859.396,-367.568"/>
<polygon fill="#9ecae1" stroke="#9ecae1" points="858.45,-370.945 869.044,-370.927 860.751,-364.334 858.45,-370.945"/>
</g>
<!-- org_apache_geronimo_specs_geronimo_jta_1_1_spec -->
<g id="node28" class="node"><title>org_apache_geronimo_specs_geronimo_jta_1_1_spec</title>
<polygon fill="#deebf7" stroke="black" points="580,-149 580,-185 802,-185 802,-149 580,-149"/>
<text text-anchor="middle" x="691" y="-174.1" font-family="Arial" font-size="8.00">geronimo&#45;jta_1.1_spec</text>
<polyline fill="none" stroke="black" points="580,-167 802,-167 "/>
<text text-anchor="middle" x="691" y="-156.1" font-family="Arial" font-size="8.00">org.apache.geronimo.specs.geronimo&#45;jta_1.1_spec(1.1.1)</text>
</g>
<!-- org_apache_jackrabbit_jackrabbit_api&#45;&gt;org_apache_geronimo_specs_geronimo_jta_1_1_spec -->
<g id="edge48" class="edge"><title>org_apache_jackrabbit_jackrabbit_api&#45;&gt;org_apache_geronimo_specs_geronimo_jta_1_1_spec</title>
<path fill="none" stroke="#9ecae1" d="M691,-222.937C691,-214.807 691,-204.876 691,-195.705"/>
<polygon fill="#9ecae1" stroke="#9ecae1" points="694.5,-195.441 691,-185.441 687.5,-195.441 694.5,-195.441"/>
</g>
<!-- org_apache_aries_blueprint_core&#45;&gt;org_ops4j_pax_logging_pax_logging_api -->
<g id="edge55" class="edge"><title>org_apache_aries_blueprint_core&#45;&gt;org_ops4j_pax_logging_pax_logging_api</title>
<path fill="none" stroke="#deebf7" d="M1558.28,-185.183C1532.05,-223.662 1468.46,-316.932 1437.5,-362.327"/>
<polygon fill="#deebf7" stroke="#deebf7" points="1434.51,-360.503 1431.77,-370.737 1440.3,-364.446 1434.51,-360.503"/>
</g>
<!-- org_apache_aries_blueprint_core&#45;&gt;org_apache_felix_eventadmin -->
<g id="edge54" class="edge"><title>org_apache_aries_blueprint_core&#45;&gt;org_apache_felix_eventadmin</title>
<path fill="none" stroke="#deebf7" d="M1494.9,-154.817C1431.2,-145.035 1337.19,-129.9 1246.11,-112.163"/>
<polygon fill="#deebf7" stroke="#deebf7" points="1246.65,-108.703 1236.17,-110.214 1245.31,-115.573 1246.65,-108.703"/>
</g>
<!-- org_apache_aries_blueprint_core&#45;&gt;org_apache_aries_blueprint_api -->
<g id="edge53" class="edge"><title>org_apache_aries_blueprint_core&#45;&gt;org_apache_aries_blueprint_api</title>
<path fill="none" stroke="#deebf7" d="M1512.41,-148.937C1476.98,-138.439 1431.42,-124.938 1394.32,-113.948"/>
<polygon fill="#deebf7" stroke="#deebf7" points="1395.18,-110.55 1384.59,-111.065 1393.19,-117.262 1395.18,-110.55"/>
</g>
<!-- org_apache_aries_proxy_api -->
<g id="node31" class="node"><title>org_apache_aries_proxy_api</title>
<polygon fill="#bdbdbd" stroke="black" points="1654,-75 1654,-111 1788,-111 1788,-75 1654,-75"/>
<text text-anchor="middle" x="1721" y="-100.1" font-family="Arial" font-size="8.00">Apache Aries Proxy API</text>
<polyline fill="none" stroke="black" points="1654,-93 1788,-93 "/>
<text text-anchor="middle" x="1721" y="-82.1" font-family="Arial" font-size="8.00">org.apache.aries.proxy.api(1.0.0)</text>
</g>
<!-- org_apache_aries_blueprint_core&#45;&gt;org_apache_aries_proxy_api -->
<g id="edge52" class="edge"><title>org_apache_aries_blueprint_core&#45;&gt;org_apache_aries_proxy_api</title>
<path fill="none" stroke="#deebf7" d="M1605.78,-148.937C1626.77,-138.931 1653.48,-126.196 1675.9,-115.507"/>
<polygon fill="#deebf7" stroke="#deebf7" points="1677.69,-118.528 1685.21,-111.065 1674.68,-112.21 1677.69,-118.528"/>
</g>
<!-- org_apache_aries_util -->
<g id="node32" class="node"><title>org_apache_aries_util</title>
<polygon fill="#bdbdbd" stroke="black" points="1665,-1 1665,-37 1777,-37 1777,-1 1665,-1"/>
<text text-anchor="middle" x="1721" y="-26.1" font-family="Arial" font-size="8.00">Apache Aries Util</text>
<polyline fill="none" stroke="black" points="1665,-19 1777,-19 "/>
<text text-anchor="middle" x="1721" y="-8.1" font-family="Arial" font-size="8.00">org.apache.aries.util(1.1.0)</text>
</g>
<!-- org_apache_aries_blueprint_core&#45;&gt;org_apache_aries_util -->
<g id="edge56" class="edge"><title>org_apache_aries_blueprint_core&#45;&gt;org_apache_aries_util</title>
<path fill="none" stroke="#deebf7" d="M1581.78,-148.9C1595.61,-129.502 1619.87,-97.5157 1645,-74 1657.12,-62.659 1671.72,-51.7397 1684.87,-42.7236"/>
<polygon fill="#deebf7" stroke="#deebf7" points="1686.92,-45.5682 1693.27,-37.0884 1683.02,-39.7565 1686.92,-45.5682"/>
</g>
<!-- org_apache_aries_quiesce_api -->
<g id="node33" class="node"><title>org_apache_aries_quiesce_api</title>
<polygon fill="#bdbdbd" stroke="black" points="1418,-75 1418,-111 1560,-111 1560,-75 1418,-75"/>
<text text-anchor="middle" x="1489" y="-100.1" font-family="Arial" font-size="8.00">Apache Aries Quiesce API</text>
<polyline fill="none" stroke="black" points="1418,-93 1560,-93 "/>
<text text-anchor="middle" x="1489" y="-82.1" font-family="Arial" font-size="8.00">org.apache.aries.quiesce.api(1.0.0)</text>
</g>
<!-- org_apache_aries_blueprint_core&#45;&gt;org_apache_aries_quiesce_api -->
<g id="edge57" class="edge"><title>org_apache_aries_blueprint_core&#45;&gt;org_apache_aries_quiesce_api</title>
<path fill="none" stroke="#deebf7" d="M1550.8,-148.937C1540.39,-139.679 1527.35,-128.086 1515.93,-117.938"/>
<polygon fill="#deebf7" stroke="#deebf7" points="1518.14,-115.218 1508.34,-111.19 1513.49,-120.45 1518.14,-115.218"/>
</g>
<!-- org_apache_sshd_core&#45;&gt;org_ops4j_pax_logging_pax_logging_api -->
<g id="edge58" class="edge"><title>org_apache_sshd_core&#45;&gt;org_ops4j_pax_logging_pax_logging_api</title>
<path fill="none" stroke="#deebf7" d="M1798.96,-185.123C1783.91,-219.392 1745.21,-296.346 1687,-334 1683.27,-336.416 1591.65,-354.653 1516.77,-369.275"/>
<polygon fill="#deebf7" stroke="#deebf7" points="1515.94,-365.871 1506.79,-371.221 1517.28,-372.741 1515.94,-365.871"/>
</g>
<!-- org_apache_mina_core -->
<g id="node34" class="node"><title>org_apache_mina_core</title>
<polygon fill="#bdbdbd" stroke="black" points="1885.5,-75 1885.5,-111 2002.5,-111 2002.5,-75 1885.5,-75"/>
<text text-anchor="middle" x="1944" y="-100.1" font-family="Arial" font-size="8.00">Apache MINA Core</text>
<polyline fill="none" stroke="black" points="1885.5,-93 2002.5,-93 "/>
<text text-anchor="middle" x="1944" y="-82.1" font-family="Arial" font-size="8.00">org.apache.mina.core(2.0.7)</text>
</g>
<!-- org_apache_sshd_core&#45;&gt;org_apache_mina_core -->
<g id="edge59" class="edge"><title>org_apache_sshd_core&#45;&gt;org_apache_mina_core</title>
<path fill="none" stroke="#deebf7" d="M1838.7,-148.937C1857.64,-139.056 1881.68,-126.514 1902.01,-115.91"/>
<polygon fill="#deebf7" stroke="#deebf7" points="1903.81,-118.919 1911.05,-111.19 1900.57,-112.713 1903.81,-118.919"/>
</g>
<!-- bcprov -->
<g id="node35" class="node"><title>bcprov</title>
<polygon fill="#bdbdbd" stroke="black" points="1806.5,-75 1806.5,-111 1867.5,-111 1867.5,-75 1806.5,-75"/>
<text text-anchor="middle" x="1837" y="-100.1" font-family="Arial" font-size="8.00">bcprov</text>
<polyline fill="none" stroke="black" points="1806.5,-93 1867.5,-93 "/>
<text text-anchor="middle" x="1837" y="-82.1" font-family="Arial" font-size="8.00">bcprov(1.46)</text>
</g>
<!-- org_apache_sshd_core&#45;&gt;bcprov -->
<g id="edge60" class="edge"><title>org_apache_sshd_core&#45;&gt;bcprov</title>
<path fill="none" stroke="#deebf7" d="M1813.35,-148.937C1816.96,-140.542 1821.4,-130.227 1825.46,-120.81"/>
<polygon fill="#deebf7" stroke="#deebf7" points="1828.75,-122.01 1829.49,-111.441 1822.32,-119.241 1828.75,-122.01"/>
</g>
<!-- org_apache_felix_configadmin&#45;&gt;org_ops4j_pax_logging_pax_logging_api -->
<g id="edge61" class="edge"><title>org_apache_felix_configadmin&#45;&gt;org_ops4j_pax_logging_pax_logging_api</title>
<path fill="none" stroke="#bdbdbd" d="M1001.07,-37.2931C992.33,-64.3869 977,-118.645 977,-166 977,-242 977,-242 977,-242 977,-283.752 965.118,-305.902 996,-334 1048.12,-381.42 1235.97,-361.007 1323.31,-370.185"/>
<polygon fill="#bdbdbd" stroke="#bdbdbd" points="1323.09,-373.685 1333.44,-371.458 1323.96,-366.739 1323.09,-373.685"/>
</g>
<!-- org_apache_felix_metatype&#45;&gt;org_ops4j_pax_logging_pax_logging_api -->
<g id="edge62" class="edge"><title>org_apache_felix_metatype&#45;&gt;org_ops4j_pax_logging_pax_logging_api</title>
<path fill="none" stroke="#bdbdbd" d="M1239.56,-24.402C1336.2,-31.6564 1511.65,-47.9671 1569,-74 1614.61,-94.7025 1633.25,-102.414 1654,-148 1699.16,-247.19 1553.01,-329.698 1471.29,-366.846"/>
<polygon fill="#bdbdbd" stroke="#bdbdbd" points="1469.84,-363.659 1462.15,-370.937 1472.7,-370.049 1469.84,-363.659"/>
</g>
<!-- org_apache_aries_proxy_api&#45;&gt;org_apache_aries_util -->
<g id="edge63" class="edge"><title>org_apache_aries_proxy_api&#45;&gt;org_apache_aries_util</title>
<path fill="none" stroke="#bdbdbd" d="M1721,-74.937C1721,-66.8072 1721,-56.8761 1721,-47.7047"/>
<polygon fill="#bdbdbd" stroke="#bdbdbd" points="1724.5,-47.4406 1721,-37.4407 1717.5,-47.4407 1724.5,-47.4406"/>
</g>
<!-- org_apache_aries_util&#45;&gt;org_ops4j_pax_logging_pax_logging_api -->
<g id="edge66" class="edge"><title>org_apache_aries_util&#45;&gt;org_ops4j_pax_logging_pax_logging_api</title>
<path fill="none" stroke="#bdbdbd" d="M1777.14,-27.0768C1856.67,-37.6054 1994.39,-57.8833 2011,-74 2041.03,-103.142 2031,-124.156 2031,-166 2031,-242 2031,-242 2031,-242 2031,-356.932 1652.31,-351.016 1516.67,-370.058"/>
<polygon fill="#bdbdbd" stroke="#bdbdbd" points="1515.94,-366.63 1506.58,-371.599 1516.99,-373.549 1515.94,-366.63"/>
</g>
<!-- org_apache_mina_core&#45;&gt;org_ops4j_pax_logging_pax_logging_api -->
<g id="edge64" class="edge"><title>org_apache_mina_core&#45;&gt;org_ops4j_pax_logging_pax_logging_api</title>
<path fill="none" stroke="#bdbdbd" d="M1934.14,-111.118C1906.93,-156.552 1825.81,-280.37 1721,-334 1641.46,-374.697 1609.24,-354.949 1516.66,-369.984"/>
<polygon fill="#bdbdbd" stroke="#bdbdbd" points="1515.86,-366.57 1506.6,-371.715 1517.05,-373.469 1515.86,-366.57"/>
</g>
<!-- bcprov&#45;&gt;org_apache_servicemix_bundles_junit -->
<g id="edge65" class="edge"><title>bcprov&#45;&gt;org_apache_servicemix_bundles_junit</title>
<path fill="none" stroke="#bdbdbd" d="M1867.63,-76.0209C1886.86,-65.9882 1911.92,-52.9137 1932.99,-41.9192"/>
<polygon fill="#bdbdbd" stroke="#bdbdbd" points="1934.8,-44.9202 1942.05,-37.1915 1931.56,-38.7141 1934.8,-44.9202"/>
</g>
</g>
</svg>
